<svg id="Component_3_13" data-name="Component 3 – 13" xmlns="http://www.w3.org/2000/svg" xmlns:xlink="http://www.w3.org/1999/xlink" width="25.371" height="28" viewBox="0 0 25.371 28">
  <defs>
    <clipPath id="clip-path">
      <rect id="Rectangle_27" data-name="Rectangle 27" width="25.371" height="28" fill="#e6007e"/>
    </clipPath>
  </defs>
  <g id="Group_1048" data-name="Group 1048" clip-path="url(#clip-path)">
    <path id="Path_1971" data-name="Path 1971" d="M21.2,20.594a7.519,7.519,0,0,1-2.1,4.1A10.292,10.292,0,0,1,10.943,28a11.5,11.5,0,0,1-7.635-2.788Q0,22.425,0,16.142q0-5.886,2.986-9.028a10.207,10.207,0,0,1,7.749-3.141,11.868,11.868,0,0,1,5.1,1.061,8.93,8.93,0,0,1,3.745,3.349A11.444,11.444,0,0,1,21.3,13.064a30.271,30.271,0,0,1,.187,4.493H5.971Q6.1,20.97,8.113,22.342a5.047,5.047,0,0,0,2.955.853,4.247,4.247,0,0,0,2.974-1.041,4.917,4.917,0,0,0,1.1-1.56Zm-5.867-6.948a5.163,5.163,0,0,0-1.425-3.568,4.425,4.425,0,0,0-3.172-1.217,4.032,4.032,0,0,0-3.194,1.29,6.436,6.436,0,0,0-1.425,3.495ZM22.325,0a3.047,3.047,0,1,0,3.046,3.046A3.046,3.046,0,0,0,22.325,0" fill="#e6007e"/>
  </g>
</svg>