<svg xmlns="http://www.w3.org/2000/svg" xmlns:xlink="http://www.w3.org/1999/xlink" width="28" height="28" viewBox="0 0 28 28">
  <defs>
    <clipPath id="clip-path">
      <rect id="Rectangle_44" data-name="Rectangle 44" width="28" height="28" fill="#fff"/>
    </clipPath>
  </defs>
  <g id="Group_1076" data-name="Group 1076" clip-path="url(#clip-path)">
    <path id="Path_1981" data-name="Path 1981" d="M14,0A14,14,0,1,0,28,14,14,14,0,0,0,14,0m1.5,22.432a1.509,1.509,0,0,1-1.5,1.5,1.492,1.492,0,0,1-1.5-1.5L12.5,15.58H5.637a1.5,1.5,0,0,1,0-3l6.866-.007V5.716a1.492,1.492,0,0,1,1.5-1.5,1.509,1.509,0,0,1,1.5,1.5v6.859l6.852.007a1.491,1.491,0,0,1,1.5,1.5,1.509,1.509,0,0,1-1.5,1.5L15.5,15.573Z" fill="#fff"/>
  </g>
</svg>
