<svg id="Group_1036" data-name="Group 1036" xmlns="http://www.w3.org/2000/svg" xmlns:xlink="http://www.w3.org/1999/xlink" width="43.304" height="39.113" viewBox="0 0 43.304 39.113">
  <defs>
    <clipPath id="clip-path">
      <rect id="Rectangle_15" data-name="Rectangle 15" width="43.304" height="39.113" fill="#fdca01"/>
    </clipPath>
  </defs>
  <g id="Group_1034" data-name="Group 1034" transform="translate(0 0)" clip-path="url(#clip-path)">
    <path id="Path_1968" data-name="Path 1968" d="M40.238,7.5H3.065A2.967,2.967,0,0,0,0,10.374v25.86a2.967,2.967,0,0,0,3.066,2.879H40.238a2.968,2.968,0,0,0,3.068-2.879V10.374A2.968,2.968,0,0,0,40.238,7.5M12.624,21.779a.794.794,0,0,1-.782.782H9.871a.8.8,0,0,1-.782-.782V15.912a.8.8,0,0,1,.782-.782h1.971a.794.794,0,0,1,.782.782Zm21.591,0a.8.8,0,0,1-.782.782h-1.97a.794.794,0,0,1-.782-.782V15.912a.794.794,0,0,1,.782-.782h1.97a.8.8,0,0,1,.782.782ZM13.125,4.6a4.6,4.6,0,0,1,4.6-4.6h7.858a4.6,4.6,0,0,1,4.6,4.6,1.315,1.315,0,0,1-2.63,0A1.969,1.969,0,0,0,25.581,2.63H17.723A1.97,1.97,0,0,0,15.755,4.6a1.315,1.315,0,0,1-2.63,0" transform="translate(-0.001 0)" fill="#fdca01"/>
  </g>
</svg>
