<svg id="Group_1037" data-name="Group 1037" xmlns="http://www.w3.org/2000/svg" xmlns:xlink="http://www.w3.org/1999/xlink" width="45.837" height="34.418" viewBox="0 0 45.837 34.418">
  <defs>
    <clipPath id="clip-path">
      <rect id="Rectangle_14" data-name="Rectangle 14" width="45.837" height="34.418" fill="#0c9"/>
    </clipPath>
  </defs>
  <g id="Group_1031" data-name="Group 1031" clip-path="url(#clip-path)">
    <path id="Path_1967" data-name="Path 1967" d="M13.462,24.393A25.848,25.848,0,0,0,7.42,27.3H.992A.985.985,0,0,1,0,26.32a.945.945,0,0,1,.33-.743,11.489,11.489,0,0,1,7.447-2.559,12.015,12.015,0,0,1,5.685,1.375M11.136,13.451a4.283,4.283,0,0,0-3.359-1.707A4.782,4.782,0,0,0,3.3,16.8a4.778,4.778,0,0,0,4.473,5.038,4.73,4.73,0,0,0,4.46-4.722,2.271,2.271,0,0,0,.014-.316,5.372,5.372,0,0,0-1.115-3.345M45.507,25.577a11.483,11.483,0,0,0-7.447-2.559,12.02,12.02,0,0,0-5.685,1.375A25.859,25.859,0,0,1,38.418,27.3h6.428a.984.984,0,0,0,.99-.978.94.94,0,0,0-.33-.743M38.06,11.744a4.26,4.26,0,0,0-3.373,1.733,5.4,5.4,0,0,0-1.1,3.318,2.069,2.069,0,0,0,.014.3,4.734,4.734,0,0,0,4.46,4.736A4.777,4.777,0,0,0,42.533,16.8a4.781,4.781,0,0,0-4.473-5.052M39.4,30.605a25.361,25.361,0,0,0-16.482-5.663A25.365,25.365,0,0,0,6.436,30.605a2.143,2.143,0,0,0-.723,1.63,2.182,2.182,0,0,0,2.181,2.182H37.943a2.183,2.183,0,0,0,2.182-2.182,2.139,2.139,0,0,0-.724-1.63M32.819,11.164C32.819,5,28.386,0,22.916,0s-9.9,5-9.9,11.164,4.435,11.164,9.9,11.164,9.9-5,9.9-11.164" transform="translate(0 0)" fill="#0c9"/>
  </g>
</svg>
