<svg id="Group_1130" data-name="Group 1130" xmlns="http://www.w3.org/2000/svg" xmlns:xlink="http://www.w3.org/1999/xlink" width="23.043" height="28" viewBox="0 0 23.043 28">
  <defs>
    <clipPath id="clip-path">
      <rect id="Rectangle_43" data-name="Rectangle 43" width="23.043" height="28" fill="#f52f57"/>
    </clipPath>
  </defs>
  <g id="Group_1074" data-name="Group 1074" clip-path="url(#clip-path)">
    <path id="Path_1978" data-name="Path 1978" d="M20.891,4.935H2.151A2.151,2.151,0,0,0,.039,7.493L3.658,26.256A2.152,2.152,0,0,0,5.771,28h11.5a2.15,2.15,0,0,0,2.112-1.744L23,7.493a2.151,2.151,0,0,0-2.112-2.558m-3.2,20.994a.423.423,0,0,1-.415.343H5.771a.424.424,0,0,1-.416-.343L1.736,7.166a.423.423,0,0,1,.415-.5h18.74a.423.423,0,0,1,.415.5Z" fill="#f52f57"/>
    <path id="Path_1979" data-name="Path 1979" d="M7.81,3.886a.864.864,0,0,0,.864-.864A1.294,1.294,0,0,1,9.967,1.729h3.109a1.294,1.294,0,0,1,1.293,1.293.864.864,0,1,0,1.728,0A3.025,3.025,0,0,0,13.076,0H9.967A3.025,3.025,0,0,0,6.946,3.022a.864.864,0,0,0,.864.864" fill="#f52f57"/>
    <path id="Path_1980" data-name="Path 1980" d="M16.706,10.875a.863.863,0,0,0-1.222,0l-3.963,3.963L7.558,10.875A.864.864,0,0,0,6.336,12.1L10.3,16.059,6.336,20.023a.864.864,0,0,0,1.222,1.222l3.963-3.964,3.963,3.964a.864.864,0,0,0,1.222-1.222l-3.963-3.964L16.706,12.1a.863.863,0,0,0,0-1.222" fill="#f52f57"/>
  </g>
</svg>
