<svg xmlns="http://www.w3.org/2000/svg" xmlns:xlink="http://www.w3.org/1999/xlink" width="28" height="23.51" viewBox="0 0 28 23.51">
  <defs>
    <clipPath id="clip-path">
      <rect id="Rectangle_638" data-name="Rectangle 638" width="28" height="23.51" transform="translate(0 0)" fill="#1d1e26"/>
    </clipPath>
    <clipPath id="clip-path-2">
      <rect id="Rectangle_637" data-name="Rectangle 637" width="22.538" height="23.51" fill="#1d1e26"/>
    </clipPath>
  </defs>
  <g id="Group_1129" data-name="Group 1129" transform="translate(0 0)" clip-path="url(#clip-path)">
    <g id="Group_1128" data-name="Group 1128" transform="translate(2.731 0)">
      <g id="Group_1127" data-name="Group 1127" clip-path="url(#clip-path-2)">
        <path id="Path_1984" data-name="Path 1984" d="M18.808,1.159V.781A.785.785,0,0,0,18.027,0H7.464A7.475,7.475,0,0,0,0,7.464V22.729a.785.785,0,0,0,.781.781H18.027a.785.785,0,0,0,.781-.781V8.229L17.238,9.8V21.94H1.57V7.624A2.585,2.585,0,0,1,2.359,7.3c.059-.008.134-.042.2-.05a1.607,1.607,0,0,1,.3-.059,3.221,3.221,0,0,1,.537-.1,12.84,12.84,0,0,1,2.124-.151c.218,0,.42.008.63.025a.818.818,0,0,0,.588-.235.841.841,0,0,0,.227-.579c-.008-.21-.017-.42-.017-.63A12.77,12.77,0,0,1,7.1,3.4,4.6,4.6,0,0,1,7.2,2.855a1.378,1.378,0,0,1,.067-.294,1.176,1.176,0,0,1,.05-.2,2.443,2.443,0,0,1,.311-.789h9.614V2.729ZM5.836,1.805c-.042.143-.084.294-.118.445-.017.076-.025.151-.042.227s-.034.151-.05.218c-.017.084-.034.16-.042.235a15.559,15.559,0,0,0-.176,1.8c-.008.126-.017.26-.017.369s-.008.2-.008.277c-.126,0-.277.017-.462.025a1.552,1.552,0,0,0-.193.008,15.558,15.558,0,0,0-1.8.168c-.067.008-.151.034-.227.05a2.195,2.195,0,0,0-.227.05,1.076,1.076,0,0,0-.227.042,2.38,2.38,0,0,0-.437.118H1.8A5.933,5.933,0,0,1,5.836,1.8ZM18,3.886l1.628,1.627L6.225,18.9a.965.965,0,0,1-.244.175l-2.5,1.2a.187.187,0,0,1-.252-.252l1.191-2.5a.962.962,0,0,1,.176-.244Zm4.279-1.031L21.02,4.116,19.393,2.488l1.26-1.261a.9.9,0,0,1,1.269,0l.352.359a.894.894,0,0,1,0,1.269" fill="#1d1e26"/>
      </g>
    </g>
  </g>
</svg>
