<svg id="Group_1132" data-name="Group 1132" xmlns="http://www.w3.org/2000/svg" xmlns:xlink="http://www.w3.org/1999/xlink" width="28" height="24.28" viewBox="0 0 28 24.28">
  <defs>
    <clipPath id="clip-path">
      <rect id="Rectangle_38" data-name="Rectangle 38" width="28" height="24.28" transform="translate(0 0)" fill="#1d1e26"/>
    </clipPath>
  </defs>
  <g id="Group_1055" data-name="Group 1055" clip-path="url(#clip-path)">
    <path id="Path_1974" data-name="Path 1974" d="M25.5,6.85H2.5A2.5,2.5,0,0,0,0,9.35v8.58a2.5,2.5,0,0,0,2.5,2.5H6v-2H5a1,1,0,0,1,0-2H23a1,1,0,0,1,0,2H22v2h3.5a2.5,2.5,0,0,0,2.5-2.5V9.35a2.5,2.5,0,0,0-2.5-2.5M5,10.85a1,1,0,1,1,1-1,1,1,0,0,1-1,1m15.516,7.58v4.85a1,1,0,0,1-1,1H8.5a1,1,0,0,1-1-1V18.43H9v4.35H19.017V18.43ZM7.5,5.85V1a1,1,0,0,1,1-1H19.517a1,1,0,0,1,1,1V5.85h-1.5V1.5H9V5.85ZM14,19.43H11a.5.5,0,0,1,0-1h3a.5.5,0,0,1,0,1m1.776,2H11a.5.5,0,0,1,0-1h4.776a.5.5,0,1,1,0,1" fill="#1d1e26"/>
  </g>
</svg>
