<svg id="Avatar_Profile_Pic_Medium" data-name="Avatar Profile Pic Medium" xmlns="http://www.w3.org/2000/svg" width="64" height="64" viewBox="0 0 64 64">
  <circle id="Ellipse_114" data-name="Ellipse 114" cx="32" cy="32" r="32" fill="#fff"/>
  <path id="Path_1966" data-name="Path 1966" d="M40,10A30,30,0,1,0,70,40,30.005,30.005,0,0,0,40,10Zm0,10.929c6.107,0,11.057,5.593,11.057,12.471,0,6.9-4.95,12.471-11.057,12.471-6.129,0-11.079-5.571-11.079-12.471C28.921,26.521,33.871,20.929,40,20.929ZM58.814,58.321c0,.021-.021.021-.043.043a2.472,2.472,0,0,1-.579.579c-.021.021-.021.043-.043.043a26.106,26.106,0,0,1-36.493-.171,1.225,1.225,0,0,1-.171-.15l-.129-.129a2.443,2.443,0,0,1-.579-1.586,2.4,2.4,0,0,1,.793-1.821A28.337,28.337,0,0,1,40,48.807a28.277,28.277,0,0,1,18.407,6.321,2.345,2.345,0,0,1,.814,1.821A2.461,2.461,0,0,1,58.814,58.321Z" transform="translate(-8 -8)" fill="#fdca01"/>
</svg>
