<svg id="Group_1046" data-name="Group 1046" xmlns="http://www.w3.org/2000/svg" xmlns:xlink="http://www.w3.org/1999/xlink" width="42.14" height="33.419" viewBox="0 0 42.14 33.419">
  <defs>
    <clipPath id="clip-path">
      <rect id="Rectangle_22" data-name="Rectangle 22" width="42.14" height="33.419" fill="#f52f57"/>
    </clipPath>
  </defs>
  <g id="Group_1044" data-name="Group 1044" transform="translate(0 0)" clip-path="url(#clip-path)">
    <path id="Path_1970" data-name="Path 1970" d="M40.759,1.374A3.208,3.208,0,0,0,37.8,1L28.111,4.617a1.088,1.088,0,0,1-.749,0L15.527.2A3.218,3.218,0,0,0,13.28.2L2.091,4.375A3.228,3.228,0,0,0,0,7.387v22.02a3.216,3.216,0,0,0,4.337,3.013L14.029,28.8a1.088,1.088,0,0,1,.749,0l11.835,4.414a3.234,3.234,0,0,0,2.247,0l11.189-4.173a3.226,3.226,0,0,0,2.091-3.011V4.014a3.212,3.212,0,0,0-1.381-2.64M40,26.034a1.076,1.076,0,0,1-.7,1L28.415,31.1a.722.722,0,0,0,.036-.177V9.4a.714.714,0,0,0-1.428,0V30.919a.734.734,0,0,0,.034.177L15.527,26.8a3.218,3.218,0,0,0-2.247,0L3.588,30.411a1.07,1.07,0,0,1-1.446-1V7.387a1.075,1.075,0,0,1,.7-1L13.689,2.337V23.948a.714.714,0,0,0,1.428,0V2.338L26.612,6.624a3.2,3.2,0,0,0,2.247,0L38.552,3.01a1.072,1.072,0,0,1,1.446,1Z" transform="translate(0 0)" fill="#f52f57"/>
  </g>
</svg>
