<svg id="Group_1131" data-name="Group 1131" xmlns="http://www.w3.org/2000/svg" xmlns:xlink="http://www.w3.org/1999/xlink" width="28.455" height="25.96" viewBox="0 0 28.455 25.96">
  <defs>
    <clipPath id="clip-path">
      <rect id="Rectangle_40" data-name="Rectangle 40" width="28.455" height="25.96" transform="translate(0 0)" fill="#1d1e26"/>
    </clipPath>
  </defs>
  <g id="Group_1060" data-name="Group 1060" clip-path="url(#clip-path)">
    <path id="Path_1975" data-name="Path 1975" d="M22.772,6.823l5.346,5.346a1.168,1.168,0,0,1,.248.37,1.14,1.14,0,0,1,0,.883,1.157,1.157,0,0,1-.248.37l-5.346,5.346a1.148,1.148,0,0,1-1.623-1.623l3.388-3.387H10.917a1.148,1.148,0,1,1,0-2.3h13.62L21.149,8.446a1.148,1.148,0,0,1,1.623-1.623M11.32,24.71a1.244,1.244,0,0,0-1.25-1.25H3.9a1.406,1.406,0,0,1-1.4-1.41V3.91A1.406,1.406,0,0,1,3.9,2.5h6.17a1.25,1.25,0,0,0,0-2.5H3.9A3.914,3.914,0,0,0,0,3.91V22.05a3.907,3.907,0,0,0,3.9,3.91h6.17a1.244,1.244,0,0,0,1.25-1.25" fill="#1d1e26"/>
  </g>
</svg>
