<svg xmlns="http://www.w3.org/2000/svg" xmlns:xlink="http://www.w3.org/1999/xlink" width="44" height="44" viewBox="0 0 44 44">
  <defs>
    <clipPath id="clip-path">
      <rect id="Rectangle_16" data-name="Rectangle 16" width="44" height="44" transform="translate(0.021 -0.098)" fill="#00c2d6"/>
    </clipPath>
  </defs>
  <g id="Group_1039" data-name="Group 1039" transform="translate(-0.021 0.098)">
    <g id="Group_1038" data-name="Group 1038" clip-path="url(#clip-path)">
      <path id="Path_1969" data-name="Path 1969" d="M21.9,0A21.9,21.9,0,1,0,43.8,21.9,21.906,21.906,0,0,0,21.9,0m0,7.979c4.459,0,8.073,4.083,8.073,9.105,0,5.038-3.614,9.105-8.073,9.105-4.474,0-8.088-4.068-8.088-9.105,0-5.022,3.614-9.105,8.088-9.105m13.736,27.3c0,.016-.016.016-.031.031a1.8,1.8,0,0,1-.422.422c-.016.016-.016.031-.031.031a19.06,19.06,0,0,1-26.643-.125.894.894,0,0,1-.125-.11l-.094-.094a1.784,1.784,0,0,1-.422-1.158,1.751,1.751,0,0,1,.579-1.33A20.688,20.688,0,0,1,21.9,28.332a20.645,20.645,0,0,1,13.439,4.615,1.712,1.712,0,0,1,.594,1.33,1.8,1.8,0,0,1-.3,1" fill="#00c2d6"/>
    </g>
  </g>
</svg>
